<svg class="marks" width="800" height="450" viewBox="0 0 800 450" version="1.1" xmlns="http://www.w3.org/2000/svg" xmlns:xlink="http://www.w3.org/1999/xlink"><g transform="translate(47,5)"><g class="mark-group role-frame root"><g transform="translate(0,0)"><path class="background" d="M0,0h751v413h-751Z" style="fill: none;"></path><g><g class="mark-group role-axis"><g transform="translate(0.5,413.5)"><path class="background" d="M0,0h0v0h0Z" style="pointer-events: none; fill: none;"></path><g><g class="mark-rule role-axis-tick" style="pointer-events: none;"><line transform="translate(60,0)" x2="0" y2="5" style="fill: none; stroke: #888; stroke-width: 1; opacity: 1;"></line><line transform="translate(156,0)" x2="0" y2="5" style="fill: none; stroke: #888; stroke-width: 1; opacity: 1;"></line><line transform="translate(251,0)" x2="0" y2="5" style="fill: none; stroke: #888; stroke-width: 1; opacity: 1;"></line><line transform="translate(347,0)" x2="0" y2="5" style="fill: none; stroke: #888; stroke-width: 1; opacity: 1;"></line><line transform="translate(442,0)" x2="0" y2="5" style="fill: none; stroke: #888; stroke-width: 1; opacity: 1;"></line><line transform="translate(538,0)" x2="0" y2="5" style="fill: none; stroke: #888; stroke-width: 1; opacity: 1;"></line><line transform="translate(633,0)" x2="0" y2="5" style="fill: none; stroke: #888; stroke-width: 1; opacity: 1;"></line><line transform="translate(728,0)" x2="0" y2="5" style="fill: none; stroke: #888; stroke-width: 1; opacity: 1;"></line></g><g class="mark-text role-axis-label" style="pointer-events: none;"><text text-anchor="middle" transform="translate(60,15)" style="font-family: sans-serif; font-size: 10px; fill: #000; opacity: 1;">0</text><text text-anchor="middle" transform="translate(156,15)" style="font-family: sans-serif; font-size: 10px; fill: #000; opacity: 1;">2,000</text><text text-anchor="middle" transform="translate(251,15)" style="font-family: sans-serif; font-size: 10px; fill: #000; opacity: 1;">4,000</text><text text-anchor="middle" transform="translate(347,15)" style="font-family: sans-serif; font-size: 10px; fill: #000; opacity: 1;">6,000</text><text text-anchor="middle" transform="translate(442,15)" style="font-family: sans-serif; font-size: 10px; fill: #000; opacity: 1;">8,000</text><text text-anchor="middle" transform="translate(538,15)" style="font-family: sans-serif; font-size: 10px; fill: #000; opacity: 1;">10,000</text><text text-anchor="middle" transform="translate(633,15)" style="font-family: sans-serif; font-size: 10px; fill: #000; opacity: 1;">12,000</text><text text-anchor="middle" transform="translate(728,15)" style="font-family: sans-serif; font-size: 10px; fill: #000; opacity: 1;">14,000</text></g><g class="mark-rule role-axis-domain" style="pointer-events: none;"><line transform="translate(0,0)" x2="751" y2="0" style="fill: none; stroke: #888; stroke-width: 1; opacity: 1;"></line></g><g class="mark-text role-axis-title" style="pointer-events: none;"><text text-anchor="middle" transform="translate(375.5,30)" style="font-family: sans-serif; font-size: 11px; font-weight: bold; fill: #000; opacity: 1;">Altitude</text></g></g><path class="foreground" d="" style="pointer-events: none; display: none; fill: none;"></path></g></g><g class="mark-group role-axis"><g transform="translate(0.5,0.5)"><path class="background" d="M0,0h0v0h0Z" style="pointer-events: none; fill: none;"></path><g><g class="mark-rule role-axis-tick" style="pointer-events: none;"><line transform="translate(0,413)" x2="-5" y2="0" style="fill: none; stroke: #888; stroke-width: 1; opacity: 1;"></line><line transform="translate(0,310)" x2="-5" y2="0" style="fill: none; stroke: #888; stroke-width: 1; opacity: 1;"></line><line transform="translate(0,207)" x2="-5" y2="0" style="fill: none; stroke: #888; stroke-width: 1; opacity: 1;"></line><line transform="translate(0,103)" x2="-5" y2="0" style="fill: none; stroke: #888; stroke-width: 1; opacity: 1;"></line><line transform="translate(0,0)" x2="-5" y2="0" style="fill: none; stroke: #888; stroke-width: 1; opacity: 1;"></line></g><g class="mark-text role-axis-label" style="pointer-events: none;"><text text-anchor="end" transform="translate(-7,416)" style="font-family: sans-serif; font-size: 10px; fill: #000; opacity: 1;">0</text><text text-anchor="end" transform="translate(-7,313)" style="font-family: sans-serif; font-size: 10px; fill: #000; opacity: 1;">1,000</text><text text-anchor="end" transform="translate(-7,210)" style="font-family: sans-serif; font-size: 10px; fill: #000; opacity: 1;">2,000</text><text text-anchor="end" transform="translate(-7,106)" style="font-family: sans-serif; font-size: 10px; fill: #000; opacity: 1;">3,000</text><text text-anchor="end" transform="translate(-7,3)" style="font-family: sans-serif; font-size: 10px; fill: #000; opacity: 1;">4,000</text></g><g class="mark-rule role-axis-domain" style="pointer-events: none;"><line transform="translate(0,413)" x2="0" y2="-413" style="fill: none; stroke: #888; stroke-width: 1; opacity: 1;"></line></g></g><path class="foreground" d="" style="pointer-events: none; display: none; fill: none;"></path></g></g><g class="mark-rect role-mark"><path d="M0.5,413.5h38v0h-38Z" style="fill: #2E364B; stroke: #222;"></path><path d="M38.5,36.5h37v377h-37Z" style="fill: #EFBF46; stroke: #222;"></path><path d="M75.5,206.5h38v207h-38Z" style="fill: #BCBFC7; stroke: #222;"></path><path d="M113.5,334.5h37v79h-37Z" style="fill: #586077; stroke: #222;"></path><path d="M150.5,372.5h38v41h-38Z" style="fill: #3F475D; stroke: #222;"></path><path d="M188.5,389.5h37v24h-37Z" style="fill: #394157; stroke: #222;"></path><path d="M225.5,392.5h38v21h-38Z" style="fill: #353E53; stroke: #222;"></path><path d="M263.5,397.5h37v16h-37Z" style="fill: #333C51; stroke: #222;"></path><path d="M300.5,402.5h38v11h-38Z" style="fill: #30384D; stroke: #222;"></path><path d="M338.5,407.5h38v6h-38Z" style="fill: #30384D; stroke: #222;"></path><path d="M376.5,408.5h37v5h-37Z" style="fill: #2E364B; stroke: #222;"></path><path d="M413.5,411.5h38v2h-38Z" style="fill: #2E364B; stroke: #222;"></path><path d="M451.5,411.5h37v2h-37Z" style="fill: #2E364B; stroke: #222;"></path><path d="M488.5,412.5h38v1h-38Z" style="fill: #2E364B; stroke: #222;"></path><path d="M526.5,413.5h37v0h-37Z" style="fill: #2E364B; stroke: #222;"></path><path d="M563.5,412.5h38v1h-38Z" style="fill: #2E364B; stroke: #222;"></path><path d="M601.5,413.5h37v0h-37Z" style="fill: #2E364B; stroke: #222;"></path><path d="M638.5,412.5h38v1h-38Z" style="fill: #2E364B; stroke: #222;"></path><path d="M676.5,413.5h37v0h-37Z" style="fill: #2E364B; stroke: #222;"></path><path d="M713.5,413.5h38v0h-38Z" style="fill: #2E364B; stroke: #222;"></path></g></g><path class="foreground" d="" style="display: none; fill: none;"></path></g></g></g></svg>